# xmcd
#
# Track frame offsets:
#	150
#	11649
#	29440
#	44163
#	57222
#	68045
#	79167
#	89522
#	101086
#	116238
#	131845
#	142980
#	156845
#	171789
#	186889
#	198596
#	211148
#	226053
#
# Disc length: 3197 seconds
#
# Revision: 2
# Processed by: cddbd v1.5.2PL0 Copyright (c) Steve Scherf et al.
# Submitted via: audiograbber 1.83.01
#
DISCID=030c7b12
DTITLE=Loretta Lynn - D1
DYEAR=1900
DGENRE=Karaoke
TTITLE0=Loretta Lynn - Your Squaw Is On The Warpath
TTITLE1=Loretta Lynn - I Can't Hear The Music
TTITLE2=Loretta Lynn - Woman Of The World
TTITLE3=Loretta Lynn - Blue Kentucky Girl
TTITLE4=Loretta Lynn - Trouble In Paradise
TTITLE5=Loretta Lynn - They Don't Make 'Em Like My Daddy Anymore
TTITLE6=Loretta Lynn - Fist City
TTITLE7=Loretta Lynn - Honky Tonk Girl
TTITLE8=Loretta Lynn - Coal Miners Daughter
TTITLE9=Loretta Lynn - Lonesome 77203
TTITLE10=Loretta Lynn - Don't Come Home A Drinkin'
TTITLE11=Loretta Lynn - Rated X
TTITLE12=Loretta Lynn - When The Tingle Becomes A Chill
TTITLE13=Loretta Lynn - Out Of My Head And Back In My Bed
TTITLE14=Loretta Lynn - You're Lookin' At Country
TTITLE15=Loretta Lynn - Lead Me On
TTITLE16=Loretta Lynn - Hey Loretta
TTITLE17=Loretta Lynn - I've Got A Picture Of Us On My Mind
EXTD=
EXTT0=
EXTT1=
EXTT2=
EXTT3=
EXTT4=
EXTT5=
EXTT6=
EXTT7=
EXTT8=
EXTT9=
EXTT10=
EXTT11=
EXTT12=
EXTT13=
EXTT14=
EXTT15=
EXTT16=
EXTT17=
PLAYORDER=
